<svg xmlns="http://www.w3.org/2000/svg" width="101" height="80" fill="none" overflow="visible"><path d="M 22.813 33.631 C 22.813 27.317 22.776 21.148 22.84 14.98 C 22.855 13.6 22.409 13.153 20.969 13.126 C 14.612 13.003 8.257 12.823 1.9 12.943 C 0.477 12.969 -0.039 12.563 0.002 11.15 C 0.095 7.972 0.067 4.788 0.013 1.608 C -0.007 0.434 0.404 -0.003 1.659 0 C 25.19 0.05 48.721 0.061 72.252 0.106 C 74.6 0.111 76.981 0.08 79.289 0.423 C 86.922 1.555 92.706 5.713 97.396 11.351 C 99.379 13.733 99.751 16.829 100.312 19.76 C 101.133 24.047 101.288 28.35 100.398 32.656 C 99.115 38.866 95.225 43.18 89.656 46.215 C 83.449 49.597 76.702 50.885 69.619 50.802 C 66.543 50.766 66.884 50.515 66.779 53.532 C 66.49 61.817 66.522 70.103 66.558 78.39 C 66.563 79.562 66.179 80.014 64.917 79.994 C 61.114 79.934 57.308 79.939 53.503 79.99 C 52.332 80.005 51.811 79.621 51.95 78.489 C 51.956 78.441 51.95 78.392 51.95 78.344 C 51.873 64.273 51.763 50.202 51.734 36.131 C 51.724 31.121 51.888 26.111 52.017 21.102 C 52.074 18.878 52.299 18.873 54.62 18.977 C 58.017 19.13 61.426 19.111 64.828 19.056 C 66.131 19.036 66.603 19.411 66.566 20.694 C 66.413 25.99 66.76 31.294 66.301 36.588 C 66.151 38.315 66.386 38.544 68.162 38.531 C 71.064 38.509 73.994 38.664 76.863 38.341 C 82.234 37.736 86.783 33.343 87.593 27.882 C 88.484 21.87 85.377 15.603 78.352 13.659 C 75.829 12.96 73.193 13.001 70.607 12.95 C 60.296 12.746 49.985 13.128 39.674 13.132 C 38.081 13.132 37.909 13.886 37.889 15.115 C 37.557 35.933 37.828 56.753 37.722 77.572 C 37.709 79.974 37.719 79.974 35.152 79.973 C 31.648 79.972 28.141 79.909 24.639 79.998 C 23.156 80.036 22.786 79.516 22.789 78.162 C 22.83 63.367 22.814 48.571 22.813 33.631 Z" fill="rgb(0,0,0)"></path></svg>